# xmcd CD database file
#
# Track frame offsets:
#	150
#	17240
#	34610
#	55257
#	75120
#	93227
#	116590
#	133895
#	151975
#	171625
#	190960
#	214007
#	231905
#	249740
#	272712
#
# Disc length: 3893 seconds
#
# Revision: 1
# Processed by: cddbd v1.5.2PL0 Copyright (c) Steve Scherf et al.
# Submitted via: CDex 1.70beta3
#
DISCID=cc0f330f
DTITLE=エンジェル隊 [ミルフィーユ・桜葉(CV:新谷 良子)　蘭花・フランボワーズ(CV:田村 ゆかり)　ミント・ブラマンシュ(CV:沢城 みゆき)　フォルテ・シュトーレン(CV:山口 眞弓)　ヴァニラ・
DTITLE=Ｈ(CV:かない みか)　烏丸 ちとせ(CV:後藤 沙緒里) ] - ギャラクシーエンジェル ベストアルバム２ “二番煎じ”
DYEAR=2005
DGENRE=Anime
TTITLE0=エンジェル隊 [ミルフィーユ・桜葉(CV:新谷 良子)　蘭花・フランボワーズ(CV:田村 ゆかり)　ミント・ブラマンシュ(CV:沢城 みゆき)　フォルテ・シュトーレン(CV:山口 眞弓)　ヴァニラ・
TTITLE0=Ｈ(CV:かない みか) ]/ギャラクシー☆ばばんがBang！
TTITLE1=ミルフィーユ･桜葉(CV:新谷 良子)/Happyで行こう！
TTITLE2=ミルフィーユ・桜葉(CV:新谷 良子)＆ミント・ブラマンシュ(CV:沢城 みゆき)/おひさま色のMerry-go-round
TTITLE3=蘭花・フランボワーズ(CV:田村 ゆかり)/OASIS
TTITLE4=ミルフィーユ・桜葉(CV:新谷 良子)　蘭花・フランボワーズ(CV:田村 ゆかり)/エンジェル・クロニクル
TTITLE5=ミント･ブラマンシュ(CV:沢城 みゆき)/テレパス・TV！
TTITLE6=ミルフィーユ・桜葉(CV:新谷 良子)＆ミント・ブラマンシュ(CV:沢城 みゆき)/どぅびどぅび♪シークレット
TTITLE7=フォルテ･シュトーレン(CV:山口 眞弓)/弾dan・丸dan・ビートbeat！
TTITLE8=ミルフィーユ・桜葉(CV:新谷 良子)　蘭花・フランボワーズ(CV:田村 ゆかり)　フォルテ・シュトーレン(CV:山口 眞弓)/docchimo kocchimo
TTITLE9=ヴァニラ・Ｈ(CV:かない みか)/smile of snowflake＊
TTITLE10=ミラクルガール☆エンジェル隊
TTITLE11=烏丸 ちとせ(CV:後藤 沙緒里)/Let me fly away
TTITLE12=ミルフィーユ・桜葉(CV:新谷 良子)　烏丸 ちとせ(CV:後藤 沙緒里)/Jelly Beans
TTITLE13=佐藤 裕美/Angelic Symphony ～ Cosmic Euro mix ～
TTITLE14=蘭花・フランボワーズ(CV:田村 ゆかり)　ミント・ブラマンシュ(CV:沢城 みゆき)/Wake me up！ ～銀Ver.～（フルコーラス版）
EXTD=YEAR: 2005
EXTT0=
EXTT1=
EXTT2=
EXTT3=
EXTT4=
EXTT5=
EXTT6=
EXTT7=
EXTT8=
EXTT9=
EXTT10=
EXTT11=
EXTT12=
EXTT13=
EXTT14=
PLAYORDER=
